<svg xmlns="http://www.w3.org/2000/svg" viewBox="0 0 10 10">
  <g stroke="#170E00">
    <path color="#000" overflow="visible" fill="none" stroke-width=".75" stroke-linejoin="bevel" d="M8.966 5A3.966 3.898 0 015 8.898 3.966 3.898 0 011.034 5 3.966 3.898 0 015 1.102 3.966 3.898 0 018.966 5z"/>
    <path stroke-width=".5" stroke-linecap="round" stroke-linejoin="round" fill="#170E00" d="M3.65 3.44a.132.132 0 00-.093.225l.993.994a.13.13 0 00.187 0 .132.132 0 000-.186l-.994-.994a.132.132 0 00-.094-.039zm2.778 0a.132.132 0 00-.093.039L3.556 6.258a.132.132 0 00.187.186L6.52 3.665a.132.132 0 00-.093-.225zm-1.04 1.763a.131.131 0 00-.09.226l1.038 1.016a.132.132 0 10.184-.188L5.482 5.241a.132.132 0 00-.093-.038z"/>
  </g>
</svg>